<mxfile host="65bd71144e">
    <diagram id="KhFeBf7NexT4LNRZNH-2" name="Page-1">
        <mxGraphModel dx="434" dy="1459" grid="1" gridSize="10" guides="1" tooltips="1" connect="1" arrows="1" fold="1" page="1" pageScale="1" pageWidth="850" pageHeight="1100" math="0" shadow="0">
            <root>
                <mxCell id="0"/>
                <mxCell id="1" parent="0"/>
                <mxCell id="2" value="" style="whiteSpace=wrap;html=1;fillColor=#dae8fc;strokeColor=#6c8ebf;gradientColor=#7ea6e0;" parent="1" vertex="1">
                    <mxGeometry x="50" y="-10" width="340" height="340" as="geometry"/>
                </mxCell>
                <mxCell id="4" value="Select Song" style="whiteSpace=wrap;html=1;fillColor=#f5f5f5;strokeColor=#666666;fontColor=#333333;fontFamily=Helvetica;" parent="1" vertex="1">
                    <mxGeometry x="60" width="70" height="20" as="geometry"/>
                </mxCell>
                <mxCell id="6" value="" style="whiteSpace=wrap;html=1;fillColor=#d0cee2;strokeColor=#56517e;" parent="1" vertex="1">
                    <mxGeometry x="130" y="30" width="180" height="130" as="geometry"/>
                </mxCell>
                <mxCell id="8" value="SONG NAME" style="whiteSpace=wrap;html=1;fillColor=#666666;" parent="1" vertex="1">
                    <mxGeometry x="120" y="170" width="200" height="20" as="geometry"/>
                </mxCell>
                <mxCell id="9" value="Pause" style="whiteSpace=wrap;html=1;fillColor=#4D4D4D;" parent="1" vertex="1">
                    <mxGeometry x="80" y="240" width="60" height="20" as="geometry"/>
                </mxCell>
                <mxCell id="10" value="&lt;font&gt;Play&lt;/font&gt;" style="whiteSpace=wrap;html=1;fillColor=#F5F5F5;gradientColor=#B3B3B3;strokeColor=#666666;fontColor=#333333;" parent="1" vertex="1">
                    <mxGeometry x="200" y="210" width="50" height="20" as="geometry"/>
                </mxCell>
                <mxCell id="11" value="Unpause" style="whiteSpace=wrap;html=1;fillColor=#4D4D4D;" parent="1" vertex="1">
                    <mxGeometry x="310" y="240" width="60" height="20" as="geometry"/>
                </mxCell>
                <mxCell id="12" value="&lt;font color=&quot;#333333&quot;&gt;Exit&lt;/font&gt;" style="whiteSpace=wrap;html=1;fillColor=#f9f7ed;strokeColor=#36393d;" vertex="1" parent="1">
                    <mxGeometry x="320" width="50" height="20" as="geometry"/>
                </mxCell>
                <mxCell id="13" value="&lt;font color=&quot;#333333&quot;&gt;Stop&lt;/font&gt;" style="whiteSpace=wrap;html=1;fillColor=#F5F5F5;strokeColor=#36393d;gradientColor=#B3B3B3;" vertex="1" parent="1">
                    <mxGeometry x="200" y="270" width="50" height="20" as="geometry"/>
                </mxCell>
            </root>
        </mxGraphModel>
    </diagram>
</mxfile>